<svg width="189" height="131" viewBox="0 0 189 131" fill="none" xmlns="http://www.w3.org/2000/svg">
<rect width="188.5" height="131" rx="21" fill="#7C7C7C"/>
<path d="M24.3857 80.4644C13.7235 73.3369 13.7236 57.6631 24.3857 50.5356L83.9966 10.687C90.0514 6.63954 97.9486 6.63954 104.003 10.687L163.614 50.5356C174.276 57.6631 174.276 73.3369 163.614 80.4644L104.003 120.313C97.9486 124.36 90.0514 124.36 83.9966 120.313L24.3857 80.4644Z" fill="#D6D6D6"/>
<circle cx="94" cy="65" r="38" fill="#868686"/>
<mask id="mask0_187_1095" style="mask-type:alpha" maskUnits="userSpaceOnUse" x="56" y="27" width="76" height="76">
<circle cx="94" cy="65" r="38" fill="#1655B9"/>
</mask>
<g mask="url(#mask0_187_1095)">
<path d="M163.5 89C163.5 96.5644 157.863 104.595 146.137 111.052C134.608 117.402 118.307 121.5 100 121.5C81.6933 121.5 65.3919 117.402 53.8629 111.052C42.1373 104.595 36.5 96.5644 36.5 89C36.5 81.4356 42.1373 73.4052 53.8629 66.9477C65.3919 60.5983 81.6933 56.5 100 56.5C118.307 56.5 134.608 60.5983 146.137 66.9477C157.863 73.4052 163.5 81.4356 163.5 89Z" stroke="white" stroke-width="11"/>
</g>
</svg>
