<svg width="189" height="131" viewBox="0 0 189 131" fill="none" xmlns="http://www.w3.org/2000/svg">
<rect width="188.5" height="131" rx="21" fill="#7C7C7C"/>
<mask id="mask0_187_1149" style="mask-type:alpha" maskUnits="userSpaceOnUse" x="0" y="0" width="189" height="131">
<rect width="188.5" height="131" rx="21" fill="#D72700"/>
</mask>
<g mask="url(#mask0_187_1149)">
<path d="M-29 170H217V177H-29V170Z" fill="white"/>
<path d="M-29 158H217V165H-29V158Z" fill="white"/>
<path d="M-29 146H217V153H-29V146Z" fill="white"/>
<path d="M-29 134H217V141H-29V134Z" fill="white"/>
<path d="M-29 122H217V129H-29V122Z" fill="white"/>
<path d="M-29 110H217V117H-29V110Z" fill="white"/>
<path d="M-29 98H217V105H-29V98Z" fill="white"/>
<path d="M-29 86H217V93H-29V86Z" fill="white"/>
<path d="M-29 74H217V81H-29V74Z" fill="white"/>
<path d="M-29 62H217V69H-29V62Z" fill="white"/>
<path d="M-29 50H217V57H-29V50Z" fill="white"/>
<path d="M-29 38H217V45H-29V38Z" fill="white"/>
<path d="M-29 26H217V33H-29V26Z" fill="white"/>
<path d="M-29 14H217V21H-29V14Z" fill="white"/>
<path d="M-29 2H217V9H-29V2Z" fill="white"/>
<path d="M-29 -10H217V-3H-29V-10Z" fill="white"/>
<path d="M-29 -22H217V-15H-29V-22Z" fill="white"/>
<path d="M-29 -34H217V-27H-29V-34Z" fill="white"/>
<path d="M-29 -46H217V-39H-29V-46Z" fill="white"/>
</g>
<path d="M0 21C0 9.40201 9.40202 0 21 0H83.5278C89.3115 0 94 4.68854 94 10.4721V54.8541C94 60.6377 89.3115 65.3263 83.5278 65.3263H0V21Z" fill="#D6D6D6"/>
<path d="M11.2034 11.4538C11.353 10.9931 12.0048 10.9931 12.1544 11.4538L12.6171 12.8778C12.6841 13.0838 12.876 13.2233 13.0926 13.2233L14.59 13.2233C15.0743 13.2233 15.2757 13.8431 14.8838 14.1278L13.6725 15.0079C13.4973 15.1352 13.4239 15.3609 13.4909 15.5669L13.9536 16.9909C14.1032 17.4516 13.576 17.8346 13.1841 17.5499L11.9728 16.6698C11.7975 16.5425 11.5602 16.5425 11.385 16.6698L10.1737 17.5499C9.7818 17.8346 9.25456 17.4516 9.40424 16.9909L9.86693 15.5669C9.93387 15.3609 9.86054 15.1352 9.6853 15.0079L8.47395 14.1278C8.08209 13.8431 8.28348 13.2233 8.76784 13.2233L10.2651 13.2233C10.4818 13.2233 10.6737 13.0838 10.7407 12.8778L11.2034 11.4538Z" fill="#7C7C7C"/>
<path d="M11.2034 29.4352C11.353 28.9745 12.0048 28.9746 12.1544 29.4352L12.6171 30.8592C12.6841 31.0652 12.876 31.2047 13.0926 31.2047L14.59 31.2047C15.0743 31.2047 15.2757 31.8245 14.8838 32.1092L13.6725 32.9893C13.4973 33.1166 13.4239 33.3423 13.4909 33.5483L13.9536 34.9724C14.1032 35.433 13.576 35.8161 13.1841 35.5314L11.9728 34.6513C11.7975 34.524 11.5602 34.524 11.385 34.6513L10.1737 35.5314C9.7818 35.8161 9.25456 35.433 9.40424 34.9724L9.86693 33.5483C9.93387 33.3423 9.86054 33.1166 9.6853 32.9893L8.47395 32.1092C8.08209 31.8245 8.28348 31.2047 8.76784 31.2047L10.2651 31.2047C10.4818 31.2047 10.6737 31.0652 10.7407 30.8592L11.2034 29.4352Z" fill="#7C7C7C"/>
<path d="M11.2034 47.4176C11.353 46.957 12.0048 46.957 12.1544 47.4176L12.6171 48.8416C12.6841 49.0477 12.876 49.1871 13.0926 49.1871L14.59 49.1871C15.0743 49.1871 15.2757 49.8069 14.8838 50.0916L13.6725 50.9717C13.4973 51.0991 13.4239 51.3247 13.4909 51.5308L13.9536 52.9548C14.1032 53.4154 13.576 53.7985 13.1841 53.5138L11.9728 52.6337C11.7975 52.5064 11.5602 52.5064 11.385 52.6337L10.1737 53.5138C9.7818 53.7985 9.25456 53.4154 9.40424 52.9548L9.86693 51.5308C9.93387 51.3247 9.86054 51.0991 9.6853 50.9717L8.47395 50.0916C8.08209 49.8069 8.28348 49.1871 8.76784 49.1871L10.2651 49.1871C10.4818 49.1871 10.6737 49.0477 10.7407 48.8416L11.2034 47.4176Z" fill="#7C7C7C"/>
<path d="M81.8459 11.4538C81.9956 10.9931 82.6473 10.9931 82.797 11.4538L83.2597 12.8778C83.3266 13.0838 83.5186 13.2233 83.7352 13.2233L85.2325 13.2233C85.7169 13.2233 85.9183 13.8431 85.5264 14.1278L84.3151 15.0079C84.1398 15.1352 84.0665 15.3609 84.1334 15.5669L84.5961 16.9909C84.7458 17.4516 84.2186 17.8346 83.8267 17.5499L82.6154 16.6698C82.4401 16.5425 82.2028 16.5425 82.0276 16.6698L80.8162 17.5499C80.4244 17.8346 79.8971 17.4516 80.0468 16.9909L80.5095 15.5669C80.5764 15.3609 80.5031 15.1352 80.3279 15.0079L79.1165 14.1278C78.7247 13.8431 78.9261 13.2233 79.4104 13.2233L80.9077 13.2233C81.1243 13.2233 81.3163 13.0838 81.3833 12.8778L81.8459 11.4538Z" fill="#7C7C7C"/>
<path d="M81.8459 29.4352C81.9956 28.9745 82.6473 28.9746 82.797 29.4352L83.2597 30.8592C83.3266 31.0652 83.5186 31.2047 83.7352 31.2047L85.2325 31.2047C85.7169 31.2047 85.9183 31.8245 85.5264 32.1092L84.3151 32.9893C84.1398 33.1166 84.0665 33.3423 84.1334 33.5483L84.5961 34.9724C84.7458 35.433 84.2186 35.8161 83.8267 35.5314L82.6154 34.6513C82.4401 34.524 82.2028 34.524 82.0276 34.6513L80.8162 35.5314C80.4244 35.8161 79.8971 35.433 80.0468 34.9724L80.5095 33.5483C80.5764 33.3423 80.5031 33.1166 80.3279 32.9893L79.1165 32.1092C78.7247 31.8245 78.9261 31.2047 79.4104 31.2047L80.9077 31.2047C81.1243 31.2047 81.3163 31.0652 81.3833 30.8592L81.8459 29.4352Z" fill="#7C7C7C"/>
<path d="M81.8459 47.4176C81.9956 46.957 82.6473 46.957 82.797 47.4176L83.2597 48.8416C83.3266 49.0477 83.5186 49.1871 83.7352 49.1871L85.2325 49.1871C85.7169 49.1871 85.9183 49.8069 85.5264 50.0916L84.3151 50.9717C84.1398 51.0991 84.0665 51.3247 84.1334 51.5308L84.5961 52.9548C84.7458 53.4154 84.2186 53.7985 83.8267 53.5138L82.6154 52.6337C82.4401 52.5064 82.2028 52.5064 82.0276 52.6337L80.8162 53.5138C80.4244 53.7985 79.8971 53.4154 80.0468 52.9548L80.5095 51.5308C80.5764 51.3247 80.5031 51.0991 80.3279 50.9717L79.1165 50.0916C78.7247 49.8069 78.9261 49.1871 79.4104 49.1871L80.9077 49.1871C81.1243 49.1871 81.3163 49.0477 81.3833 48.8416L81.8459 47.4176Z" fill="#7C7C7C"/>
<path d="M20.1946 2.46352C20.3443 2.00287 20.996 2.00287 21.1456 2.46353L21.6083 3.88755C21.6753 4.09356 21.8672 4.23304 22.0839 4.23304L23.5812 4.23304C24.0655 4.23304 24.2669 4.85285 23.8751 5.13755L22.6637 6.01764C22.4885 6.14496 22.4151 6.37065 22.4821 6.57666L22.9448 8.00068C23.0944 8.46134 22.5672 8.8444 22.1753 8.5597L20.964 7.6796C20.7888 7.55228 20.5515 7.55228 20.3762 7.6796L19.1649 8.5597C18.773 8.8444 18.2458 8.46134 18.3955 8.00068L18.8581 6.57666C18.9251 6.37065 18.8518 6.14496 18.6765 6.01764L17.4652 5.13755C17.0733 4.85285 17.2747 4.23304 17.7591 4.23304L19.2564 4.23304C19.473 4.23304 19.665 4.09356 19.7319 3.88755L20.1946 2.46352Z" fill="#7C7C7C"/>
<path d="M20.1946 20.445C20.3443 19.9843 20.996 19.9843 21.1456 20.445L21.6083 21.869C21.6753 22.075 21.8672 22.2145 22.0839 22.2145L23.5812 22.2145C24.0655 22.2145 24.2669 22.8343 23.8751 23.119L22.6637 23.9991C22.4885 24.1264 22.4151 24.3521 22.4821 24.5581L22.9448 25.9821C23.0944 26.4428 22.5672 26.8258 22.1753 26.5411L20.964 25.661C20.7888 25.5337 20.5515 25.5337 20.3762 25.661L19.1649 26.5411C18.773 26.8258 18.2458 26.4428 18.3955 25.9821L18.8581 24.5581C18.9251 24.3521 18.8518 24.1264 18.6765 23.9991L17.4652 23.119C17.0733 22.8343 17.2747 22.2145 17.7591 22.2145L19.2564 22.2145C19.473 22.2145 19.665 22.075 19.7319 21.869L20.1946 20.445Z" fill="#7C7C7C"/>
<path d="M20.1946 38.4264C20.3443 37.9658 20.996 37.9658 21.1456 38.4264L21.6083 39.8504C21.6753 40.0565 21.8672 40.1959 22.0839 40.1959L23.5812 40.1959C24.0655 40.1959 24.2669 40.8157 23.8751 41.1004L22.6637 41.9805C22.4885 42.1079 22.4151 42.3335 22.4821 42.5395L22.9448 43.9636C23.0944 44.4242 22.5672 44.8073 22.1753 44.5226L20.964 43.6425C20.7888 43.5152 20.5515 43.5152 20.3762 43.6425L19.1649 44.5226C18.773 44.8073 18.2458 44.4242 18.3955 43.9636L18.8581 42.5395C18.9251 42.3335 18.8518 42.1079 18.6765 41.9805L17.4652 41.1004C17.0733 40.8157 17.2747 40.1959 17.7591 40.1959L19.2564 40.1959C19.473 40.1959 19.665 40.0564 19.7319 39.8504L20.1946 38.4264Z" fill="#7C7C7C"/>
<path d="M20.1946 56.4079C20.3443 55.9472 20.996 55.9472 21.1456 56.4079L21.6083 57.8319C21.6753 58.0379 21.8672 58.1774 22.0839 58.1774L23.5812 58.1774C24.0655 58.1774 24.2669 58.7972 23.8751 59.0819L22.6637 59.962C22.4885 60.0893 22.4151 60.315 22.4821 60.521L22.9448 61.945C23.0944 62.4057 22.5672 62.7887 22.1753 62.504L20.964 61.6239C20.7888 61.4966 20.5515 61.4966 20.3762 61.6239L19.1649 62.504C18.773 62.7887 18.2458 62.4057 18.3955 61.945L18.8581 60.521C18.9251 60.315 18.8518 60.0893 18.6765 59.962L17.4652 59.0819C17.0733 58.7972 17.2747 58.1774 17.7591 58.1774L19.2564 58.1774C19.473 58.1774 19.665 58.0379 19.7319 57.8319L20.1946 56.4079Z" fill="#7C7C7C"/>
<path d="M25.2405 11.4538C25.3902 10.9931 26.0419 10.9931 26.1915 11.4538L26.6542 12.8778C26.7212 13.0838 26.9131 13.2233 27.1298 13.2233L28.6271 13.2233C29.1114 13.2233 29.3128 13.8431 28.921 14.1278L27.7096 15.0079C27.5344 15.1352 27.461 15.3609 27.528 15.5669L27.9907 16.9909C28.1403 17.4516 27.6131 17.8346 27.2212 17.5499L26.0099 16.6698C25.8347 16.5425 25.5974 16.5425 25.4221 16.6698L24.2108 17.5499C23.8189 17.8346 23.2917 17.4516 23.4413 16.9909L23.904 15.5669C23.971 15.3609 23.8976 15.1352 23.7224 15.0079L22.5111 14.1278C22.1192 13.8431 22.3206 13.2233 22.805 13.2233L24.3023 13.2233C24.5189 13.2233 24.7108 13.0838 24.7778 12.8778L25.2405 11.4538Z" fill="#7C7C7C"/>
<path d="M25.2405 29.4352C25.3902 28.9745 26.0419 28.9746 26.1915 29.4352L26.6542 30.8592C26.7212 31.0652 26.9131 31.2047 27.1298 31.2047L28.6271 31.2047C29.1114 31.2047 29.3128 31.8245 28.921 32.1092L27.7096 32.9893C27.5344 33.1166 27.461 33.3423 27.528 33.5483L27.9907 34.9724C28.1403 35.433 27.6131 35.8161 27.2212 35.5314L26.0099 34.6513C25.8347 34.524 25.5974 34.524 25.4221 34.6513L24.2108 35.5314C23.8189 35.8161 23.2917 35.433 23.4413 34.9724L23.904 33.5483C23.971 33.3423 23.8976 33.1166 23.7224 32.9893L22.5111 32.1092C22.1192 31.8245 22.3206 31.2047 22.805 31.2047L24.3023 31.2047C24.5189 31.2047 24.7108 31.0652 24.7778 30.8592L25.2405 29.4352Z" fill="#7C7C7C"/>
<path d="M25.2405 47.4176C25.3902 46.957 26.0419 46.957 26.1915 47.4176L26.6542 48.8416C26.7212 49.0477 26.9131 49.1871 27.1298 49.1871L28.6271 49.1871C29.1114 49.1871 29.3128 49.8069 28.921 50.0916L27.7096 50.9717C27.5344 51.0991 27.461 51.3247 27.528 51.5308L27.9907 52.9548C28.1403 53.4154 27.6131 53.7985 27.2212 53.5138L26.0099 52.6337C25.8347 52.5064 25.5974 52.5064 25.4221 52.6337L24.2108 53.5138C23.8189 53.7985 23.2917 53.4154 23.4413 52.9548L23.904 51.5308C23.971 51.3247 23.8976 51.0991 23.7224 50.9717L22.5111 50.0916C22.1192 49.8069 22.3206 49.1871 22.805 49.1871L24.3023 49.1871C24.5189 49.1871 24.7108 49.0477 24.7778 48.8416L25.2405 47.4176Z" fill="#7C7C7C"/>
<path d="M34.2307 2.46352C34.3804 2.00287 35.0321 2.00287 35.1818 2.46353L35.6445 3.88755C35.7114 4.09356 35.9034 4.23304 36.12 4.23304L37.6173 4.23304C38.1017 4.23304 38.303 4.85285 37.9112 5.13755L36.6998 6.01764C36.5246 6.14496 36.4513 6.37065 36.5182 6.57666L36.9809 8.00068C37.1306 8.46134 36.6033 8.8444 36.2115 8.5597L35.0001 7.6796C34.8249 7.55228 34.5876 7.55228 34.4123 7.6796L33.201 8.5597C32.8091 8.8444 32.2819 8.46134 32.4316 8.00068L32.8943 6.57666C32.9612 6.37065 32.8879 6.14496 32.7126 6.01764L31.5013 5.13755C31.1094 4.85285 31.3108 4.23304 31.7952 4.23304L33.2925 4.23304C33.5091 4.23304 33.7011 4.09356 33.768 3.88755L34.2307 2.46352Z" fill="#7C7C7C"/>
<path d="M34.2307 20.445C34.3804 19.9843 35.0321 19.9843 35.1818 20.445L35.6445 21.869C35.7114 22.075 35.9034 22.2145 36.12 22.2145L37.6173 22.2145C38.1017 22.2145 38.303 22.8343 37.9112 23.119L36.6998 23.9991C36.5246 24.1264 36.4513 24.3521 36.5182 24.5581L36.9809 25.9821C37.1306 26.4428 36.6033 26.8258 36.2115 26.5411L35.0001 25.661C34.8249 25.5337 34.5876 25.5337 34.4123 25.661L33.201 26.5411C32.8091 26.8258 32.2819 26.4428 32.4316 25.9821L32.8943 24.5581C32.9612 24.3521 32.8879 24.1264 32.7126 23.9991L31.5013 23.119C31.1094 22.8343 31.3108 22.2145 31.7952 22.2145L33.2925 22.2145C33.5091 22.2145 33.7011 22.075 33.768 21.869L34.2307 20.445Z" fill="#7C7C7C"/>
<path d="M34.2307 38.4264C34.3804 37.9658 35.0321 37.9658 35.1818 38.4264L35.6445 39.8504C35.7114 40.0565 35.9034 40.1959 36.12 40.1959L37.6173 40.1959C38.1017 40.1959 38.303 40.8157 37.9112 41.1004L36.6998 41.9805C36.5246 42.1079 36.4513 42.3335 36.5182 42.5395L36.9809 43.9636C37.1306 44.4242 36.6033 44.8073 36.2115 44.5226L35.0001 43.6425C34.8249 43.5152 34.5876 43.5152 34.4123 43.6425L33.201 44.5226C32.8091 44.8073 32.2819 44.4242 32.4316 43.9636L32.8943 42.5395C32.9612 42.3335 32.8879 42.1079 32.7126 41.9805L31.5013 41.1004C31.1094 40.8157 31.3108 40.1959 31.7952 40.1959L33.2925 40.1959C33.5091 40.1959 33.7011 40.0564 33.768 39.8504L34.2307 38.4264Z" fill="#7C7C7C"/>
<path d="M34.2307 56.4079C34.3804 55.9472 35.0321 55.9472 35.1818 56.4079L35.6445 57.8319C35.7114 58.0379 35.9034 58.1774 36.12 58.1774L37.6173 58.1774C38.1017 58.1774 38.303 58.7972 37.9112 59.0819L36.6998 59.962C36.5246 60.0893 36.4513 60.315 36.5182 60.521L36.9809 61.945C37.1306 62.4057 36.6033 62.7887 36.2115 62.504L35.0001 61.6239C34.8249 61.4966 34.5876 61.4966 34.4123 61.6239L33.201 62.504C32.8091 62.7887 32.2819 62.4057 32.4316 61.945L32.8943 60.521C32.9612 60.315 32.8879 60.0893 32.7126 59.962L31.5013 59.0819C31.1094 58.7972 31.3108 58.1774 31.7952 58.1774L33.2925 58.1774C33.5091 58.1774 33.7011 58.0379 33.768 57.8319L34.2307 56.4079Z" fill="#7C7C7C"/>
<path d="M39.2776 11.4538C39.4273 10.9931 40.079 10.9931 40.2286 11.4538L40.6913 12.8778C40.7583 13.0838 40.9503 13.2233 41.1669 13.2233L42.6642 13.2233C43.1485 13.2233 43.3499 13.8431 42.9581 14.1278L41.7467 15.0079C41.5715 15.1352 41.4981 15.3609 41.5651 15.5669L42.0278 16.9909C42.1775 17.4516 41.6502 17.8346 41.2584 17.5499L40.047 16.6698C39.8718 16.5425 39.6345 16.5425 39.4592 16.6698L38.2479 17.5499C37.856 17.8346 37.3288 17.4516 37.4785 16.9909L37.9412 15.5669C38.0081 15.3609 37.9348 15.1352 37.7595 15.0079L36.5482 14.1278C36.1563 13.8431 36.3577 13.2233 36.8421 13.2233L38.3394 13.2233C38.556 13.2233 38.748 13.0838 38.8149 12.8778L39.2776 11.4538Z" fill="#7C7C7C"/>
<path d="M39.2776 29.4352C39.4273 28.9745 40.079 28.9746 40.2286 29.4352L40.6913 30.8592C40.7583 31.0652 40.9503 31.2047 41.1669 31.2047L42.6642 31.2047C43.1485 31.2047 43.3499 31.8245 42.9581 32.1092L41.7467 32.9893C41.5715 33.1166 41.4981 33.3423 41.5651 33.5483L42.0278 34.9724C42.1775 35.433 41.6502 35.8161 41.2584 35.5314L40.047 34.6513C39.8718 34.524 39.6345 34.524 39.4592 34.6513L38.2479 35.5314C37.856 35.8161 37.3288 35.433 37.4785 34.9724L37.9412 33.5483C38.0081 33.3423 37.9348 33.1166 37.7595 32.9893L36.5482 32.1092C36.1563 31.8245 36.3577 31.2047 36.8421 31.2047L38.3394 31.2047C38.556 31.2047 38.748 31.0652 38.8149 30.8592L39.2776 29.4352Z" fill="#7C7C7C"/>
<path d="M39.2776 47.4176C39.4273 46.957 40.079 46.957 40.2286 47.4176L40.6913 48.8416C40.7583 49.0477 40.9503 49.1871 41.1669 49.1871L42.6642 49.1871C43.1485 49.1871 43.3499 49.8069 42.9581 50.0916L41.7467 50.9717C41.5715 51.0991 41.4981 51.3247 41.5651 51.5308L42.0278 52.9548C42.1775 53.4154 41.6502 53.7985 41.2584 53.5138L40.047 52.6337C39.8718 52.5064 39.6345 52.5064 39.4592 52.6337L38.2479 53.5138C37.856 53.7985 37.3288 53.4154 37.4785 52.9548L37.9412 51.5308C38.0081 51.3247 37.9348 51.0991 37.7595 50.9717L36.5482 50.0916C36.1563 49.8069 36.3577 49.1871 36.8421 49.1871L38.3394 49.1871C38.556 49.1871 38.748 49.0477 38.8149 48.8416L39.2776 47.4176Z" fill="#7C7C7C"/>
<path d="M48.2678 2.46352C48.4175 2.00287 49.0692 2.00287 49.2189 2.46353L49.6816 3.88755C49.7485 4.09356 49.9405 4.23304 50.1571 4.23304L51.6544 4.23304C52.1388 4.23304 52.3402 4.85285 51.9483 5.13755L50.737 6.01764C50.5617 6.14496 50.4884 6.37065 50.5553 6.57666L51.018 8.00068C51.1677 8.46134 50.6404 8.8444 50.2486 8.5597L49.0372 7.6796C48.862 7.55228 48.6247 7.55228 48.4495 7.6796L47.2381 8.5597C46.8463 8.8444 46.319 8.46134 46.4687 8.00068L46.9314 6.57666C46.9983 6.37065 46.925 6.14496 46.7497 6.01764L45.5384 5.13755C45.1465 4.85285 45.3479 4.23304 45.8323 4.23304L47.3296 4.23304C47.5462 4.23304 47.7382 4.09356 47.8051 3.88755L48.2678 2.46352Z" fill="#7C7C7C"/>
<path d="M48.2678 20.445C48.4175 19.9843 49.0692 19.9843 49.2189 20.445L49.6816 21.869C49.7485 22.075 49.9405 22.2145 50.1571 22.2145L51.6544 22.2145C52.1388 22.2145 52.3402 22.8343 51.9483 23.119L50.737 23.9991C50.5617 24.1264 50.4884 24.3521 50.5553 24.5581L51.018 25.9821C51.1677 26.4428 50.6404 26.8258 50.2486 26.5411L49.0372 25.661C48.862 25.5337 48.6247 25.5337 48.4495 25.661L47.2381 26.5411C46.8463 26.8258 46.319 26.4428 46.4687 25.9821L46.9314 24.5581C46.9983 24.3521 46.925 24.1264 46.7497 23.9991L45.5384 23.119C45.1465 22.8343 45.3479 22.2145 45.8323 22.2145L47.3296 22.2145C47.5462 22.2145 47.7382 22.075 47.8051 21.869L48.2678 20.445Z" fill="#7C7C7C"/>
<path d="M48.2678 38.4264C48.4175 37.9658 49.0692 37.9658 49.2189 38.4264L49.6816 39.8504C49.7485 40.0565 49.9405 40.1959 50.1571 40.1959L51.6544 40.1959C52.1388 40.1959 52.3402 40.8157 51.9483 41.1004L50.737 41.9805C50.5617 42.1079 50.4884 42.3335 50.5553 42.5395L51.018 43.9636C51.1677 44.4242 50.6404 44.8073 50.2486 44.5226L49.0372 43.6425C48.862 43.5152 48.6247 43.5152 48.4495 43.6425L47.2381 44.5226C46.8463 44.8073 46.319 44.4242 46.4687 43.9636L46.9314 42.5395C46.9983 42.3335 46.925 42.1079 46.7497 41.9805L45.5384 41.1004C45.1465 40.8157 45.3479 40.1959 45.8323 40.1959L47.3296 40.1959C47.5462 40.1959 47.7382 40.0564 47.8051 39.8504L48.2678 38.4264Z" fill="#7C7C7C"/>
<path d="M48.2678 56.4079C48.4175 55.9472 49.0692 55.9472 49.2189 56.4079L49.6816 57.8319C49.7485 58.0379 49.9405 58.1774 50.1571 58.1774L51.6544 58.1774C52.1388 58.1774 52.3402 58.7972 51.9483 59.0819L50.737 59.962C50.5617 60.0893 50.4884 60.315 50.5553 60.521L51.018 61.945C51.1677 62.4057 50.6404 62.7887 50.2486 62.504L49.0372 61.6239C48.862 61.4966 48.6247 61.4966 48.4495 61.6239L47.2381 62.504C46.8463 62.7887 46.319 62.4057 46.4687 61.945L46.9314 60.521C46.9983 60.315 46.925 60.0893 46.7497 59.962L45.5384 59.0819C45.1465 58.7972 45.3479 58.1774 45.8323 58.1774L47.3296 58.1774C47.5462 58.1774 47.7382 58.0379 47.8051 57.8319L48.2678 56.4079Z" fill="#7C7C7C"/>
<path d="M53.3137 11.4538C53.4634 10.9931 54.1151 10.9931 54.2648 11.4538L54.7275 12.8778C54.7944 13.0838 54.9864 13.2233 55.203 13.2233L56.7003 13.2233C57.1847 13.2233 57.3861 13.8431 56.9942 14.1278L55.7829 15.0079C55.6076 15.1352 55.5343 15.3609 55.6012 15.5669L56.0639 16.9909C56.2136 17.4516 55.6863 17.8346 55.2945 17.5499L54.0831 16.6698C53.9079 16.5425 53.6706 16.5425 53.4954 16.6698L52.284 17.5499C51.8922 17.8346 51.3649 17.4516 51.5146 16.9909L51.9773 15.5669C52.0442 15.3609 51.9709 15.1352 51.7956 15.0079L50.5843 14.1278C50.1924 13.8431 50.3938 13.2233 50.8782 13.2233L52.3755 13.2233C52.5921 13.2233 52.7841 13.0838 52.851 12.8778L53.3137 11.4538Z" fill="#7C7C7C"/>
<path d="M53.3137 29.4352C53.4634 28.9745 54.1151 28.9746 54.2648 29.4352L54.7275 30.8592C54.7944 31.0652 54.9864 31.2047 55.203 31.2047L56.7003 31.2047C57.1847 31.2047 57.3861 31.8245 56.9942 32.1092L55.7829 32.9893C55.6076 33.1166 55.5343 33.3423 55.6012 33.5483L56.0639 34.9724C56.2136 35.433 55.6863 35.8161 55.2945 35.5314L54.0831 34.6513C53.9079 34.524 53.6706 34.524 53.4954 34.6513L52.284 35.5314C51.8922 35.8161 51.3649 35.433 51.5146 34.9724L51.9773 33.5483C52.0442 33.3423 51.9709 33.1166 51.7956 32.9893L50.5843 32.1092C50.1924 31.8245 50.3938 31.2047 50.8782 31.2047L52.3755 31.2047C52.5921 31.2047 52.7841 31.0652 52.851 30.8592L53.3137 29.4352Z" fill="#7C7C7C"/>
<path d="M53.3137 47.4176C53.4634 46.957 54.1151 46.957 54.2648 47.4176L54.7275 48.8416C54.7944 49.0477 54.9864 49.1871 55.203 49.1871L56.7003 49.1871C57.1847 49.1871 57.3861 49.8069 56.9942 50.0916L55.7829 50.9717C55.6076 51.0991 55.5343 51.3247 55.6012 51.5308L56.0639 52.9548C56.2136 53.4154 55.6863 53.7985 55.2945 53.5138L54.0831 52.6337C53.9079 52.5064 53.6706 52.5064 53.4954 52.6337L52.284 53.5138C51.8922 53.7985 51.3649 53.4154 51.5146 52.9548L51.9773 51.5308C52.0442 51.3247 51.9709 51.0991 51.7956 50.9717L50.5843 50.0916C50.1924 49.8069 50.3938 49.1871 50.8782 49.1871L52.3755 49.1871C52.5921 49.1871 52.7841 49.0477 52.851 48.8416L53.3137 47.4176Z" fill="#7C7C7C"/>
<path d="M62.3049 2.46352C62.4546 2.00287 63.1063 2.00287 63.256 2.46353L63.7187 3.88755C63.7856 4.09356 63.9776 4.23304 64.1942 4.23304L65.6915 4.23304C66.1759 4.23304 66.3773 4.85285 65.9854 5.13755L64.7741 6.01764C64.5988 6.14496 64.5255 6.37065 64.5924 6.57666L65.0551 8.00068C65.2048 8.46134 64.6776 8.8444 64.2857 8.5597L63.0744 7.6796C62.8991 7.55228 62.6618 7.55228 62.4866 7.6796L61.2752 8.5597C60.8834 8.8444 60.3561 8.46134 60.5058 8.00068L60.9685 6.57666C61.0354 6.37065 60.9621 6.14496 60.7869 6.01764L59.5755 5.13755C59.1837 4.85285 59.385 4.23304 59.8694 4.23304L61.3667 4.23304C61.5833 4.23304 61.7753 4.09356 61.8422 3.88755L62.3049 2.46352Z" fill="#7C7C7C"/>
<path d="M62.3049 20.445C62.4546 19.9843 63.1063 19.9843 63.256 20.445L63.7187 21.869C63.7856 22.075 63.9776 22.2145 64.1942 22.2145L65.6915 22.2145C66.1759 22.2145 66.3773 22.8343 65.9854 23.119L64.7741 23.9991C64.5988 24.1264 64.5255 24.3521 64.5924 24.5581L65.0551 25.9821C65.2048 26.4428 64.6776 26.8258 64.2857 26.5411L63.0744 25.661C62.8991 25.5337 62.6618 25.5337 62.4866 25.661L61.2752 26.5411C60.8834 26.8258 60.3561 26.4428 60.5058 25.9821L60.9685 24.5581C61.0354 24.3521 60.9621 24.1264 60.7869 23.9991L59.5755 23.119C59.1837 22.8343 59.385 22.2145 59.8694 22.2145L61.3667 22.2145C61.5833 22.2145 61.7753 22.075 61.8422 21.869L62.3049 20.445Z" fill="#7C7C7C"/>
<path d="M62.3049 38.4264C62.4546 37.9658 63.1063 37.9658 63.256 38.4264L63.7187 39.8504C63.7856 40.0565 63.9776 40.1959 64.1942 40.1959L65.6915 40.1959C66.1759 40.1959 66.3773 40.8157 65.9854 41.1004L64.7741 41.9805C64.5988 42.1079 64.5255 42.3335 64.5924 42.5395L65.0551 43.9636C65.2048 44.4242 64.6776 44.8073 64.2857 44.5226L63.0744 43.6425C62.8991 43.5152 62.6618 43.5152 62.4866 43.6425L61.2752 44.5226C60.8834 44.8073 60.3561 44.4242 60.5058 43.9636L60.9685 42.5395C61.0354 42.3335 60.9621 42.1079 60.7869 41.9805L59.5755 41.1004C59.1837 40.8157 59.385 40.1959 59.8694 40.1959L61.3667 40.1959C61.5833 40.1959 61.7753 40.0564 61.8422 39.8504L62.3049 38.4264Z" fill="#7C7C7C"/>
<path d="M62.3049 56.4079C62.4546 55.9472 63.1063 55.9472 63.256 56.4079L63.7187 57.8319C63.7856 58.0379 63.9776 58.1774 64.1942 58.1774L65.6915 58.1774C66.1759 58.1774 66.3773 58.7972 65.9854 59.0819L64.7741 59.962C64.5988 60.0893 64.5255 60.315 64.5924 60.521L65.0551 61.945C65.2048 62.4057 64.6776 62.7887 64.2857 62.504L63.0744 61.6239C62.8991 61.4966 62.6618 61.4966 62.4866 61.6239L61.2752 62.504C60.8834 62.7887 60.3561 62.4057 60.5058 61.945L60.9685 60.521C61.0354 60.315 60.9621 60.0893 60.7869 59.962L59.5755 59.0819C59.1837 58.7972 59.385 58.1774 59.8694 58.1774L61.3667 58.1774C61.5833 58.1774 61.7753 58.0379 61.8422 57.8319L62.3049 56.4079Z" fill="#7C7C7C"/>
<path d="M67.3499 11.4538C67.4995 10.9931 68.1512 10.9931 68.3009 11.4538L68.7636 12.8778C68.8305 13.0838 69.0225 13.2233 69.2391 13.2233L70.7364 13.2233C71.2208 13.2233 71.4222 13.8431 71.0303 14.1278L69.819 15.0079C69.6437 15.1352 69.5704 15.3609 69.6373 15.5669L70.1 16.9909C70.2497 17.4516 69.7225 17.8346 69.3306 17.5499L68.1193 16.6698C67.944 16.5425 67.7067 16.5425 67.5315 16.6698L66.3201 17.5499C65.9283 17.8346 65.401 17.4516 65.5507 16.9909L66.0134 15.5669C66.0804 15.3609 66.007 15.1352 65.8318 15.0079L64.6204 14.1278C64.2286 13.8431 64.43 13.2233 64.9143 13.2233L66.4116 13.2233C66.6282 13.2233 66.8202 13.0838 66.8872 12.8778L67.3499 11.4538Z" fill="#7C7C7C"/>
<path d="M67.3499 29.4352C67.4995 28.9745 68.1512 28.9746 68.3009 29.4352L68.7636 30.8592C68.8305 31.0652 69.0225 31.2047 69.2391 31.2047L70.7364 31.2047C71.2208 31.2047 71.4222 31.8245 71.0303 32.1092L69.819 32.9893C69.6437 33.1166 69.5704 33.3423 69.6373 33.5483L70.1 34.9724C70.2497 35.433 69.7225 35.8161 69.3306 35.5314L68.1193 34.6513C67.944 34.524 67.7067 34.524 67.5315 34.6513L66.3201 35.5314C65.9283 35.8161 65.401 35.433 65.5507 34.9724L66.0134 33.5483C66.0804 33.3423 66.007 33.1166 65.8318 32.9893L64.6204 32.1092C64.2286 31.8245 64.43 31.2047 64.9143 31.2047L66.4116 31.2047C66.6282 31.2047 66.8202 31.0652 66.8872 30.8592L67.3499 29.4352Z" fill="#7C7C7C"/>
<path d="M67.3499 47.4176C67.4995 46.957 68.1512 46.957 68.3009 47.4176L68.7636 48.8416C68.8305 49.0477 69.0225 49.1871 69.2391 49.1871L70.7364 49.1871C71.2208 49.1871 71.4222 49.8069 71.0303 50.0916L69.819 50.9717C69.6437 51.0991 69.5704 51.3247 69.6373 51.5308L70.1 52.9548C70.2497 53.4154 69.7225 53.7985 69.3306 53.5138L68.1193 52.6337C67.944 52.5064 67.7067 52.5064 67.5315 52.6337L66.3201 53.5138C65.9283 53.7985 65.401 53.4154 65.5507 52.9548L66.0134 51.5308C66.0804 51.3247 66.007 51.0991 65.8318 50.9717L64.6204 50.0916C64.2286 49.8069 64.43 49.1871 64.9143 49.1871L66.4116 49.1871C66.6282 49.1871 66.8202 49.0477 66.8872 48.8416L67.3499 47.4176Z" fill="#7C7C7C"/>
<path d="M76.3401 2.46352C76.4898 2.00287 77.1415 2.00287 77.2911 2.46353L77.7538 3.88755C77.8208 4.09356 78.0128 4.23304 78.2294 4.23304L79.7267 4.23304C80.211 4.23304 80.4124 4.85285 80.0206 5.13755L78.8092 6.01764C78.634 6.14496 78.5606 6.37065 78.6276 6.57666L79.0903 8.00068C79.24 8.46134 78.7127 8.8444 78.3209 8.5597L77.1095 7.6796C76.9343 7.55228 76.697 7.55228 76.5217 7.6796L75.3104 8.5597C74.9185 8.8444 74.3913 8.46134 74.541 8.00068L75.0037 6.57666C75.0706 6.37065 74.9973 6.14496 74.822 6.01764L73.6107 5.13755C73.2188 4.85285 73.4202 4.23304 73.9046 4.23304L75.4019 4.23304C75.6185 4.23304 75.8105 4.09356 75.8774 3.88755L76.3401 2.46352Z" fill="#7C7C7C"/>
<path d="M76.3401 20.445C76.4898 19.9843 77.1415 19.9843 77.2911 20.445L77.7538 21.869C77.8208 22.075 78.0128 22.2145 78.2294 22.2145L79.7267 22.2145C80.211 22.2145 80.4124 22.8343 80.0206 23.119L78.8092 23.9991C78.634 24.1264 78.5606 24.3521 78.6276 24.5581L79.0903 25.9821C79.24 26.4428 78.7127 26.8258 78.3209 26.5411L77.1095 25.661C76.9343 25.5337 76.697 25.5337 76.5217 25.661L75.3104 26.5411C74.9185 26.8258 74.3913 26.4428 74.541 25.9821L75.0037 24.5581C75.0706 24.3521 74.9973 24.1264 74.822 23.9991L73.6107 23.119C73.2188 22.8343 73.4202 22.2145 73.9046 22.2145L75.4019 22.2145C75.6185 22.2145 75.8105 22.075 75.8774 21.869L76.3401 20.445Z" fill="#7C7C7C"/>
<path d="M76.3401 38.4264C76.4898 37.9658 77.1415 37.9658 77.2911 38.4264L77.7538 39.8504C77.8208 40.0565 78.0128 40.1959 78.2294 40.1959L79.7267 40.1959C80.211 40.1959 80.4124 40.8157 80.0206 41.1004L78.8092 41.9805C78.634 42.1079 78.5606 42.3335 78.6276 42.5395L79.0903 43.9636C79.24 44.4242 78.7127 44.8073 78.3209 44.5226L77.1095 43.6425C76.9343 43.5152 76.697 43.5152 76.5217 43.6425L75.3104 44.5226C74.9185 44.8073 74.3913 44.4242 74.541 43.9636L75.0037 42.5395C75.0706 42.3335 74.9973 42.1079 74.822 41.9805L73.6107 41.1004C73.2188 40.8157 73.4202 40.1959 73.9046 40.1959L75.4019 40.1959C75.6185 40.1959 75.8105 40.0564 75.8774 39.8504L76.3401 38.4264Z" fill="#7C7C7C"/>
<path d="M76.3401 56.4079C76.4898 55.9472 77.1415 55.9472 77.2911 56.4079L77.7538 57.8319C77.8208 58.0379 78.0128 58.1774 78.2294 58.1774L79.7267 58.1774C80.211 58.1774 80.4124 58.7972 80.0206 59.0819L78.8092 59.962C78.634 60.0893 78.5606 60.315 78.6276 60.521L79.0903 61.945C79.24 62.4057 78.7127 62.7887 78.3209 62.504L77.1095 61.6239C76.9343 61.4966 76.697 61.4966 76.5217 61.6239L75.3104 62.504C74.9185 62.7887 74.3913 62.4057 74.541 61.945L75.0037 60.521C75.0706 60.315 74.9973 60.0893 74.822 59.962L73.6107 59.0819C73.2188 58.7972 73.4202 58.1774 73.9046 58.1774L75.4019 58.1774C75.6185 58.1774 75.8105 58.0379 75.8774 57.8319L76.3401 56.4079Z" fill="#7C7C7C"/>
</svg>
