<svg width="32" height="34" viewBox="0 0 32 34" fill="none" xmlns="http://www.w3.org/2000/svg">
<g clip-path="url(#clip0_161_223)">
<path d="M27.3655 13.9062C27.3655 23.6406 15.6378 31.9844 15.6378 31.9844C15.6378 31.9844 3.91016 23.6406 3.91016 13.9062C3.91016 10.5869 5.14575 7.4035 7.34511 5.05637C9.54448 2.70923 12.5275 1.39062 15.6378 1.39062C18.7482 1.39063 21.7312 2.70923 23.9305 5.05637C26.1299 7.4035 27.3655 10.5869 27.3655 13.9062Z" stroke="#00296B" stroke-width="2.78125" stroke-linecap="round" stroke-linejoin="round"/>
<path d="M15.6377 18.0781C17.7967 18.0781 19.547 16.2103 19.547 13.9063C19.547 11.6022 17.7967 9.73438 15.6377 9.73438C13.4787 9.73438 11.7285 11.6022 11.7285 13.9063C11.7285 16.2103 13.4787 18.0781 15.6377 18.0781Z" stroke="#00296B" stroke-width="2.78125" stroke-linecap="round" stroke-linejoin="round"/>
</g>
<defs>
<clipPath id="clip0_161_223">
<rect width="31.2738" height="33.375" fill="white"/>
</clipPath>
</defs>
</svg>
