<svg width="30" height="30" viewBox="0 0 37 34" fill="none" xmlns="http://www.w3.org/2000/svg">
    <g id="Union">
        <path id="Union_2" fill-rule="evenodd" clip-rule="evenodd" d="M23.9434 5.58308C29.4238 10.2426 30.0891 18.4627 25.4296 23.943C20.77 29.4234 12.55 30.0888 7.06965 25.4292C1.5893 20.7696 0.923908 12.5496 5.58346 7.06927C10.243 1.58891 18.463 0.923523 23.9434 5.58308ZM25.2392 27.5806L32.0602 33.3801C32.7561 33.9718 33.7999 33.8873 34.3916 33.1913L35.9987 31.3012C36.5904 30.6053 36.5059 29.5615 35.8099 28.9698L28.989 23.1704C32.6073 16.8219 31.3211 8.59938 25.5504 3.69297C19.0262 -1.85412 9.24045 -1.06199 3.69336 5.46225C-1.85373 11.9865 -1.0616 21.7722 5.46263 27.3193C11.2332 32.2256 19.5553 32.1727 25.2392 27.5806Z" fill="black"/>
    </g>
</svg>